<svg width="48" height="40" viewBox="0 0 48 40" fill="none" xmlns="http://www.w3.org/2000/svg">
<path fill-rule="evenodd" clip-rule="evenodd" d="M20.6169 14.3162V17.4832C20.6169 17.6498 20.7481 17.7795 20.9168 17.7795H24.4217C24.5904 17.7795 24.7216 17.6498 24.7216 17.4832V16.4275C24.7216 16.2608 24.5904 16.1312 24.4217 16.1312H22.6037C22.435 16.1312 22.3038 16.0015 22.3038 15.8348V14.9644C22.3038 14.7977 22.435 14.6681 22.6037 14.6681H24.0469C24.2155 14.6681 24.3467 14.5384 24.3467 14.3717V13.4828C24.3467 13.3161 24.2155 13.1865 24.0469 13.1865H22.6037C22.435 13.1865 22.3038 13.0568 22.3038 12.8901V12.0382C22.3038 11.8715 22.435 11.7419 22.6037 11.7419H24.2343C24.403 11.7419 24.5342 11.6122 24.5342 11.4455V10.5751C24.5342 10.4084 24.403 10.2788 24.2343 10.2788H20.9168C20.7481 10.2788 20.6169 10.4084 20.6169 10.5751V14.3162ZM15.369 14.2977V17.4646C15.369 17.6313 15.5002 17.761 15.6689 17.761H18.9863C19.155 17.761 19.2862 17.6313 19.2862 17.4646V16.409C19.2862 16.2423 19.155 16.1127 18.9863 16.1127H17.3557C17.187 16.1127 17.0558 15.983 17.0558 15.8163V14.9459C17.0558 14.7792 17.187 14.6495 17.3557 14.6495H18.7989C18.9676 14.6495 19.0988 14.5199 19.0988 14.3532V13.4643C19.0988 13.2976 18.9676 13.1679 18.7989 13.1679H17.3557C17.187 13.1679 17.0558 13.0383 17.0558 12.8716V12.0197C17.0558 11.853 17.187 11.7234 17.3557 11.7234L18.9863 11.7048C19.155 11.7048 19.2862 11.5752 19.2862 11.4085V10.538C19.2862 10.3714 19.155 10.2417 18.9863 10.2417L15.6689 10.2602C15.5002 10.2602 15.369 10.3899 15.369 10.5566V14.2977ZM12.0515 12.5568C12.0515 13.6124 10.6833 13.8161 10.6833 13.2605V11.9271C10.6833 11.7048 10.8708 11.6122 11.0769 11.6308C11.6392 11.6308 12.0515 11.8715 12.0515 12.5568ZM8.99649 14.2977V17.4646C8.99649 17.6313 9.12768 17.761 9.29637 17.761H10.3647C10.5334 17.761 10.6646 17.6313 10.6646 17.4646V14.9273C10.6646 14.7792 10.9082 14.7422 11.0207 14.9088C11.583 15.7978 12.1453 16.8349 12.6513 17.6128C12.7075 17.7054 12.8013 17.761 12.9137 17.761H14.5443C14.638 17.761 14.6943 17.6498 14.638 17.5758L12.7638 14.6681C12.3327 13.9828 13.8696 14.6125 13.8696 12.4642C13.8696 11.2789 13.0449 10.1676 10.5709 10.1676H9.27763C9.12769 10.1676 8.99649 10.3158 8.99649 10.464V14.2977ZM6.12886 11.6678H7.62827C7.79696 11.6678 7.92815 11.5381 7.92815 11.3715V10.501C7.92815 10.3343 7.79696 10.2047 7.62827 10.2047C6.48497 10.2047 5.37915 10.2047 4.25459 10.2047C4.0859 10.2047 3.9547 10.3343 3.9547 10.501V17.5017C3.9547 17.6684 4.0859 17.798 4.25459 17.798C4.64818 17.798 5.11675 17.798 5.51035 17.798C5.67903 17.798 5.81023 17.6684 5.81023 17.5017V15.1496C5.81023 14.9829 5.94143 14.8533 6.11011 14.8533C7.89067 14.8533 7.66576 15.057 7.66576 13.668C7.66576 13.5013 7.53456 13.3717 7.36587 13.3717H6.12886C5.96017 13.3717 5.82897 13.242 5.82897 13.0753V12.0197C5.81023 11.7974 5.96017 11.6678 6.12886 11.6678ZM1.16205 0H27.0082C27.608 0 28.1328 0.537102 28.1328 1.14827V27.5952C28.1328 28.1879 27.6267 28.7064 27.0082 28.7064H16.025C15.5564 28.7064 15.1441 28.5768 14.7505 28.3175C12.2577 26.6137 8.86529 26.6137 6.31628 28.3175C5.92269 28.5768 5.52909 28.7064 5.04178 28.7064H1.16205C0.56228 28.7064 0 28.1879 0 27.5952V1.14827C0 0.537102 0.56228 0 1.16205 0Z" fill="white"/>
<path fill-rule="evenodd" clip-rule="evenodd" d="M30.3819 27.6138V11.2604C30.3819 10.6678 30.813 10.1677 31.4127 10.1677H43.5955C45.0387 10.1677 45.0387 12.3902 43.5955 12.3902H41.3838L42.6396 19.8353C42.7333 20.428 43.2019 20.8539 43.8016 20.9095L46.9879 21.2243C47.5502 21.2799 47.9813 21.7614 47.9813 22.2985V23.0949H46.4818C45.4885 23.0949 45.4885 24.5765 46.4818 24.5765H47.9813V27.5583C47.9813 28.1509 47.4939 28.651 46.8754 28.651H42.7895C42.321 28.651 41.9086 28.5213 41.515 28.262C40.353 27.4657 38.9098 26.9842 37.2792 26.9842C35.7236 26.9842 34.2616 27.4657 33.0621 28.262C32.6685 28.5213 32.2749 28.651 31.7876 28.651H31.3752C30.7942 28.7065 30.3819 28.225 30.3819 27.6138ZM40.4092 19.7612L39.1535 12.4087H32.4436V19.2056C32.4436 19.539 32.706 19.8168 33.0433 19.8538L39.7157 20.5206C40.1281 20.5576 40.4842 20.1872 40.4092 19.7612ZM1.10582 30.929H3.01757C3.41117 30.929 3.69231 31.3179 3.54237 31.6883C3.11128 32.7625 2.92386 33.9478 3.03631 35.1331C3.0738 35.4664 2.8114 35.7442 2.47403 35.7442H1.10582C0.506051 35.7442 0 35.2442 0 34.6145V32.0587C0 31.429 0.506051 30.929 1.10582 30.929ZM17.9742 30.929H29.8196C30.2132 30.929 30.4943 31.3179 30.3444 31.6883C29.9133 32.7625 29.7259 33.9478 29.8383 35.1331C29.8758 35.4664 29.6134 35.7442 29.2761 35.7442H18.5365C18.1991 35.7442 17.9555 35.4664 17.9742 35.1331C18.0867 33.9478 17.8805 32.7625 17.4494 31.6883C17.2995 31.3179 17.5619 30.929 17.9742 30.929ZM46.8942 30.929C47.494 30.929 48 31.429 48 32.0587V34.6145C48 35.2442 47.5127 35.7442 46.8942 35.7442H45.3198C44.9824 35.7442 44.7388 35.4664 44.7575 35.1331C44.87 33.9478 44.6638 32.7625 44.2327 31.6883C44.0828 31.3179 44.3639 30.929 44.7575 30.929H46.8942ZM10.4959 32.2624C12.4639 32.2624 13.4572 34.633 12.0515 36.0035C10.6646 37.374 8.26552 36.3925 8.26552 34.4478C8.28426 33.244 9.27763 32.2624 10.4959 32.2624ZM37.2979 32.2624C39.2659 32.2624 40.2593 34.633 38.8536 36.0035C37.4666 37.374 35.0676 36.3925 35.0676 34.4478C35.0676 33.244 36.0609 32.2624 37.2979 32.2624ZM37.2979 28.8917C42.2835 28.8917 44.8137 34.8738 41.2526 38.3741C37.7103 41.8559 31.6751 39.3742 31.6751 34.4478C31.6751 31.392 34.1866 28.8917 37.2979 28.8917ZM10.4959 28.8917C15.4815 28.8917 18.0117 34.8738 14.4506 38.3741C10.9082 41.8559 4.8731 39.3742 4.8731 34.4478C4.89184 31.392 7.40336 28.8917 10.4959 28.8917Z" fill="white"/>
</svg>
