<svg width="49" height="48" viewBox="0 0 49 48" fill="none" xmlns="http://www.w3.org/2000/svg">
<path fill-rule="evenodd" clip-rule="evenodd" d="M33.1514 33.1885C38.643 33.1885 43.085 28.7207 43.085 23.2203C43.085 17.72 38.643 13.2522 33.1514 13.2522H28.4658V18.2644C28.4658 18.9027 27.7535 19.2218 27.2475 18.8464L14.9523 10.0796C14.5774 9.77925 14.5587 9.17854 14.9523 8.91573L27.2475 0.148974C27.7535 -0.207703 28.4658 0.111447 28.4658 0.730939V5.74318H33.1514C41.5294 5.74318 48.333 12.5576 48.333 20.9676C48.333 29.3777 41.5294 36.1921 33.1514 36.1921V33.1885Z" fill="white"/>
<path fill-rule="evenodd" clip-rule="evenodd" d="M16.0197 18.5459L29.6456 24.5156L30.3391 25.5668V40.979L29.6456 42.0303L16.0197 47.9999H14.6514L1.02552 42.0303L0.332031 40.979V25.5668L1.02552 24.5156L14.6514 18.5459H16.0197ZM27.3402 26.8996L15.3449 32.3437V45.3905L2.97477 40.0216V26.543L14.5015 31.0671C18.1563 29.3401 21.7924 27.5191 25.466 25.961L27.3402 26.8996Z" fill="white"/>
</svg>
