<svg width="46" height="45" viewBox="0 0 46 45" fill="none" xmlns="http://www.w3.org/2000/svg">
<path fill-rule="evenodd" clip-rule="evenodd" d="M43.4213 22.5C43.3655 20.5403 46.0625 19.3972 45.6161 17.4919C45.1697 15.5867 42.2309 15.6956 41.4125 13.9173C40.4825 12.1754 42.4169 10.0161 41.1707 8.47378C39.9245 6.94959 37.3205 8.29233 35.7954 7.02217C34.1958 5.84273 34.9584 3.06652 33.1542 2.23184C31.35 1.37902 29.6016 3.7016 27.6672 3.21168C25.6956 2.83064 25.1562 0 23.166 0C21.1572 0 20.6178 2.83064 18.6648 3.21168C16.7304 3.7016 14.9821 1.37902 13.1779 2.23184C11.3737 3.08466 12.1363 5.86088 10.5367 7.02217C9.01148 8.29233 6.4075 6.93144 5.1613 8.47378C3.91511 9.99798 5.83089 12.1754 4.91949 13.9173C4.1011 15.7137 1.16231 15.5867 0.715916 17.4919C0.269518 19.3972 2.9665 20.5403 2.9107 22.5C2.9665 24.4597 0.269518 25.6028 0.715916 27.5081C1.16231 29.4133 4.1011 29.3044 4.91949 31.0826C5.84949 32.8246 3.91511 34.9839 5.1613 36.5262C6.4075 38.0504 9.01148 36.7076 10.5367 37.9778C12.1363 39.1572 11.3737 41.9335 13.1779 42.7681C14.9821 43.621 16.7304 41.2984 18.6648 41.7883C20.6364 42.1693 21.1758 45 23.166 45C25.1748 45 25.7142 42.1693 27.6672 41.7883C29.6016 41.2984 31.35 43.621 33.1542 42.7681C34.9584 41.9153 34.1958 39.1391 35.7954 37.9778C37.3205 36.7076 39.9245 38.0685 41.1707 36.5262C42.4169 35.002 40.5011 32.8246 41.4125 31.0826C42.2309 29.2863 45.1697 29.4133 45.6161 27.5081C46.0625 25.6028 43.3655 24.4597 43.4213 22.5ZM8.37908 14.1532C3.65471 22.1371 6.46329 32.3528 14.6286 36.9617C22.794 41.5706 33.2472 38.8306 37.9715 30.8468C42.6959 22.8629 39.8873 12.6472 31.722 8.03829C23.538 3.44757 13.0849 6.16935 8.37908 14.1532Z" fill="white"/>
<path fill-rule="evenodd" clip-rule="evenodd" d="M10.2943 15.2418C6.20232 22.1733 8.63891 31.0644 15.7255 35.0745C22.8306 39.0846 31.926 36.6894 36.018 29.758C40.11 22.8265 37.6734 13.9354 30.5868 9.92528C23.5002 5.93335 14.4049 8.31037 10.2943 15.2418ZM32.67 17.4918L22.2727 30.9192C21.7147 31.645 20.6731 31.7721 19.9291 31.2458C19.7989 31.1551 19.7059 31.0463 19.6129 30.9374L12.6379 23.2257C12.0241 22.5543 12.0985 21.52 12.7867 20.9212C13.3819 20.4132 14.2375 20.3769 14.8513 20.8124L20.7475 24.895L30.159 15.387C30.7914 14.7337 31.8516 14.7156 32.5212 15.3507C33.1164 15.9313 33.1722 16.8567 32.67 17.4918Z" fill="white"/>
</svg>
