<svg width="16" height="16" viewBox="0 0 16 16" fill="none" xmlns="http://www.w3.org/2000/svg">
<g clip-path="url(#clip0_418_106)">
<path d="M11.3335 1.99999C11.5086 1.8249 11.7165 1.686 11.9452 1.59124C12.174 1.49648 12.4192 1.44771 12.6668 1.44771C12.9145 1.44771 13.1597 1.49648 13.3884 1.59124C13.6172 1.686 13.8251 1.8249 14.0002 1.99999C14.1753 2.17509 14.3142 2.38296 14.4089 2.61173C14.5037 2.84051 14.5524 3.0857 14.5524 3.33333C14.5524 3.58095 14.5037 3.82615 14.4089 4.05492C14.3142 4.28369 14.1753 4.49156 14.0002 4.66666L5.00016 13.6667L1.3335 14.6667L2.3335 11L11.3335 1.99999Z" stroke="#69A042" stroke-linecap="round" stroke-linejoin="round"/>
</g>
<defs>
<clipPath id="clip0_418_106">
<rect width="16" height="16" fill="white"/>
</clipPath>
</defs>
</svg>
