<svg width="36" height="35" viewBox="0 0 36 35" fill="none" xmlns="http://www.w3.org/2000/svg">
<path d="M31.375 14.5833C31.375 24.7917 18.25 33.5417 18.25 33.5417C18.25 33.5417 5.125 24.7917 5.125 14.5833C5.125 11.1024 6.50781 7.76397 8.96922 5.30255C11.4306 2.84114 14.769 1.45833 18.25 1.45833C21.731 1.45833 25.0694 2.84114 27.5308 5.30255C29.9922 7.76397 31.375 11.1024 31.375 14.5833Z" stroke="#0F2B4B" stroke-width="2" stroke-linecap="round" stroke-linejoin="round"/>
<path d="M18.25 18.9583C20.6662 18.9583 22.625 16.9996 22.625 14.5833C22.625 12.1671 20.6662 10.2083 18.25 10.2083C15.8338 10.2083 13.875 12.1671 13.875 14.5833C13.875 16.9996 15.8338 18.9583 18.25 18.9583Z" stroke="#0F2B4B" stroke-width="2" stroke-linecap="round" stroke-linejoin="round"/>
</svg>
