<svg width="30" height="30" viewBox="0 0 30 30" fill="none" xmlns="http://www.w3.org/2000/svg">
<path d="M15.8478 7.00043C18.0819 7.00043 19.589 7.96546 20.4482 8.77185L23.806 5.4934C21.7437 3.57656 19.0602 2.40002 15.8478 2.40002C11.1945 2.40002 7.1758 5.07037 5.2193 8.95692L9.06619 11.9445C10.0312 9.0759 12.7016 7.00043 15.8478 7.00043Z" fill="#EA4335"/>
<path d="M27.2695 14.562C27.2695 13.5838 27.1902 12.8699 27.0183 12.1296H15.8478V16.5449H22.4047C22.2725 17.6422 21.5587 19.2946 19.9723 20.4051L23.7267 23.3134C25.974 21.2379 27.2695 18.1842 27.2695 14.562Z" fill="#4285F4"/>
<path d="M9.07938 16.6507C8.82821 15.9104 8.6828 15.1172 8.6828 14.2976C8.6828 13.478 8.82824 12.6848 9.06619 11.9445L5.2193 8.95692C4.41291 10.5697 3.9502 12.3808 3.9502 14.2976C3.9502 16.2144 4.41288 18.0255 5.21927 19.6383L9.07938 16.6507Z" fill="#FBBC05"/>
<path d="M15.8478 26.1952C19.0601 26.1952 21.7569 25.1377 23.7267 23.3134L19.9723 20.4051C18.9676 21.1057 17.6192 21.5948 15.8478 21.5948C12.7015 21.5948 10.0312 19.5193 9.07938 16.6507L5.23247 19.6383C7.18896 23.5248 11.1945 26.1952 15.8478 26.1952Z" fill="#34A853"/>
</svg>
