<svg width="20" height="20" viewBox="0 0 20 20" fill="none" xmlns="http://www.w3.org/2000/svg">
<path d="M7.3649 10.0911C7.3649 8.58319 8.58769 7.36048 10.0965 7.36048C11.6053 7.36048 12.8287 8.58319 12.8287 10.0911C12.8287 11.599 11.6053 12.8217 10.0965 12.8217C8.58769 12.8217 7.3649 11.599 7.3649 10.0911ZM5.88789 10.0911C5.88789 12.4141 7.77208 14.2972 10.0965 14.2972C12.4209 14.2972 14.3051 12.4141 14.3051 10.0911C14.3051 7.76807 12.4209 5.88501 10.0965 5.88501C7.77208 5.88501 5.88789 7.76807 5.88789 10.0911ZM13.4882 5.71824C13.4881 5.91265 13.5457 6.10271 13.6537 6.2644C13.7617 6.42609 13.9153 6.55214 14.095 6.6266C14.2746 6.70107 14.4724 6.72062 14.6632 6.68277C14.854 6.64492 15.0293 6.55137 15.1669 6.41396C15.3045 6.27655 15.3982 6.10144 15.4363 5.91078C15.4743 5.72013 15.4549 5.52248 15.3805 5.34284C15.3062 5.1632 15.1802 5.00964 15.0185 4.90157C14.8568 4.79349 14.6666 4.73577 14.4721 4.73569H14.4717C14.211 4.73581 13.9609 4.83936 13.7765 5.02358C13.5921 5.20781 13.4884 5.45765 13.4882 5.71824ZM6.78527 16.7585C5.98618 16.7222 5.55185 16.5891 5.26322 16.4767C4.88056 16.3279 4.60753 16.1505 4.32047 15.864C4.03341 15.5775 3.85572 15.3049 3.7074 14.9225C3.59489 14.6342 3.46178 14.2 3.42546 13.4014C3.38572 12.538 3.37779 12.2786 3.37779 10.0912C3.37779 7.90372 3.38638 7.64507 3.42546 6.78093C3.46185 5.98233 3.59593 5.54898 3.7074 5.2598C3.85637 4.87737 4.0338 4.6045 4.32047 4.31761C4.60714 4.03073 4.8799 3.85314 5.26322 3.70491C5.55172 3.59246 5.98618 3.45944 6.78527 3.42314C7.6492 3.38342 7.90872 3.3755 10.0965 3.3755C12.2843 3.3755 12.544 3.38408 13.4087 3.42314C14.2078 3.4595 14.6414 3.59351 14.9308 3.70491C15.3134 3.85314 15.5864 4.03112 15.8735 4.31761C16.1606 4.60411 16.3376 4.87737 16.4866 5.2598C16.5991 5.54813 16.7322 5.98233 16.7685 6.78093C16.8083 7.64507 16.8162 7.90372 16.8162 10.0912C16.8162 12.2786 16.8083 12.5372 16.7685 13.4014C16.7321 14.2 16.5984 14.6341 16.4866 14.9225C16.3376 15.3049 16.1602 15.5778 15.8735 15.864C15.5868 16.1503 15.3134 16.3279 14.9308 16.4767C14.6422 16.5892 14.2078 16.7222 13.4087 16.7585C12.5448 16.7982 12.2852 16.8062 10.0965 16.8062C7.90774 16.8062 7.64894 16.7982 6.78527 16.7585ZM6.7174 1.94951C5.84488 1.98922 5.24866 2.12749 4.72798 2.32997C4.18874 2.53908 3.73225 2.81961 3.27609 3.27478C2.81993 3.72994 2.53995 4.18688 2.33072 4.7258C2.12811 5.24649 1.98976 5.84203 1.95003 6.71403C1.90964 7.58741 1.90039 7.86663 1.90039 10.0911C1.90039 12.3156 1.90964 12.5948 1.95003 13.4682C1.98976 14.3402 2.12811 14.9357 2.33072 15.4564C2.53995 15.995 2.81999 16.4524 3.27609 16.9074C3.73219 17.3624 4.18874 17.6425 4.72798 17.8522C5.24965 18.0547 5.84488 18.193 6.7174 18.2327C7.59176 18.2724 7.87069 18.2823 10.0965 18.2823C12.3223 18.2823 12.6017 18.273 13.4756 18.2327C14.3482 18.193 14.944 18.0547 15.465 17.8522C16.0039 17.6425 16.4607 17.3626 16.9169 16.9074C17.3731 16.4522 17.6524 15.995 17.8623 15.4564C18.0649 14.9357 18.2039 14.3402 18.243 13.4682C18.2827 12.5941 18.2919 12.3156 18.2919 10.0911C18.2919 7.86663 18.2827 7.58741 18.243 6.71403C18.2032 5.84196 18.0649 5.24617 17.8623 4.7258C17.6524 4.18721 17.3723 3.73067 16.9169 3.27478C16.4615 2.81889 16.0039 2.53908 15.4657 2.32997C14.944 2.12749 14.3481 1.98856 13.4762 1.94951C12.6023 1.9098 12.3229 1.8999 10.0971 1.8999C7.87135 1.8999 7.59176 1.90914 6.7174 1.94951Z" fill="white"/>
</svg>
