<svg width="90" height="90" viewBox="0 0 90 90" fill="none" xmlns="http://www.w3.org/2000/svg">
<path d="M45 82.5C39.8125 82.5 34.9375 81.515 30.375 79.545C25.8125 77.575 21.8438 74.9037 18.4688 71.5312C15.0938 68.1562 12.4225 64.1875 10.455 59.625C8.4875 55.0625 7.5025 50.1875 7.5 45C7.5 39.8125 8.485 34.9375 10.455 30.375C12.425 25.8125 15.0963 21.8438 18.4688 18.4688C21.8438 15.0938 25.8125 12.4225 30.375 10.455C34.9375 8.4875 39.8125 7.5025 45 7.5C50.1875 7.5 55.0625 8.485 59.625 10.455C64.1875 12.425 68.1562 15.0963 71.5312 18.4688C74.9062 21.8438 77.5787 25.8125 79.5487 30.375C81.5187 34.9375 82.5025 39.8125 82.5 45C82.5 50.1875 81.515 55.0625 79.545 59.625C77.575 64.1875 74.9037 68.1562 71.5312 71.5312C68.1562 74.9062 64.1875 77.5787 59.625 79.5487C55.0625 81.5187 50.1875 82.5025 45 82.5Z" fill="white"/>
<path d="M35.625 60.0433C35.625 60.8345 36.5002 61.3123 37.1658 60.8845L60.5665 45.8412C61.1788 45.4475 61.1788 44.5525 60.5665 44.1588L37.1658 29.1155C36.5002 28.6877 35.625 29.1655 35.625 29.9567V60.0433ZM45 82.5C39.8125 82.5 34.9375 81.515 30.375 79.545C25.8125 77.575 21.8438 74.9037 18.4688 71.5312C15.0938 68.1562 12.4225 64.1875 10.455 59.625C8.4875 55.0625 7.5025 50.1875 7.5 45C7.5 39.8125 8.485 34.9375 10.455 30.375C12.425 25.8125 15.0963 21.8438 18.4688 18.4688C21.8438 15.0938 25.8125 12.4225 30.375 10.455C34.9375 8.4875 39.8125 7.5025 45 7.5C50.1875 7.5 55.0625 8.485 59.625 10.455C64.1875 12.425 68.1562 15.0963 71.5312 18.4688C74.9062 21.8438 77.5787 25.8125 79.5487 30.375C81.5187 34.9375 82.5025 39.8125 82.5 45C82.5 50.1875 81.515 55.0625 79.545 59.625C77.575 64.1875 74.9037 68.1562 71.5312 71.5312C68.1562 74.9062 64.1875 77.5787 59.625 79.5487C55.0625 81.5187 50.1875 82.5025 45 82.5Z" fill="#0F2B4B"/>
</svg>
