<svg width="70" height="23" viewBox="0 0 70 23" fill="none" xmlns="http://www.w3.org/2000/svg">
<g clip-path="url(#clip0_185_3113)">
<path d="M65.2915 1.0614H60.8909C59.5605 1.0614 58.5371 1.47076 57.9231 2.80117L49.5312 21.9386H55.4669C55.4669 21.9386 56.4903 19.3801 56.695 18.7661C57.309 18.7661 63.1424 18.7661 63.9611 18.7661C64.1658 19.4825 64.6774 21.8363 64.6774 21.8363H69.9991L65.2915 1.0614ZM58.3324 14.4678C58.8441 13.2398 60.5839 8.6345 60.5839 8.6345C60.5839 8.73684 61.0956 7.40643 61.3003 6.69006L61.7096 8.53216C61.7096 8.53216 62.8353 13.5468 63.04 14.5702H58.3324V14.4678Z" fill="#303030"/>
<path d="M49.9419 15.0819C49.9419 19.3801 46.053 22.2456 40.0149 22.2456C37.4565 22.2456 35.0003 21.7339 33.6699 21.1199L34.4886 16.4123L35.205 16.7193C37.0471 17.538 38.2752 17.845 40.5266 17.845C42.1641 17.845 43.9038 17.231 43.9038 15.7983C43.9038 14.8772 43.1875 14.2632 40.936 13.2398C38.7869 12.2164 35.9214 10.579 35.9214 7.61112C35.9214 3.51755 39.9126 0.754395 45.5413 0.754395C47.6904 0.754395 49.5325 1.16375 50.6582 1.67545L49.8395 6.17837L49.4302 5.76901C48.4068 5.35966 47.0764 4.9503 45.1319 4.9503C42.9828 5.05264 41.9594 5.97369 41.9594 6.79241C41.9594 7.71346 43.1875 8.42983 45.1319 9.35089C48.4068 10.886 49.9419 12.6257 49.9419 15.0819Z" fill="#2D2D2D"/>
<path d="M0 1.26605L0.102339 0.856689H8.90351C10.1316 0.856689 11.0526 1.26605 11.3596 2.59646L13.3041 11.807C11.3596 6.8947 6.85673 2.90347 0 1.26605Z" fill="#7B7B7B"/>
<path d="M25.6874 1.06132L16.7839 21.8362H10.7459L5.62891 4.43852C9.31312 6.79232 12.3833 10.4765 13.509 13.035L14.1231 15.1841L19.6494 0.958984H25.6874V1.06132Z" fill="#2D2D2D"/>
<path d="M28.0409 0.958984H33.6695L30.0876 21.8362H24.459L28.0409 0.958984Z" fill="#2D2D2D"/>
</g>
<defs>
<clipPath id="clip0_185_3113">
<rect width="70" height="23" fill="white"/>
</clipPath>
</defs>
</svg>
