<svg width="92" height="41" viewBox="0 0 92 41" fill="none" xmlns="http://www.w3.org/2000/svg">
<path d="M88.7239 26.9934L88.5352 27.3633C88.1083 28.1431 87.9197 28.4531 87.3042 29.2829C86.5199 29.3928 86.1824 29.4228 85.5668 29.4228C83.6012 29.4228 80.3548 28.703 77.7736 27.7032L73.3161 25.9937C70.308 24.8539 67.5481 24.1941 65.5625 24.1941C63.8748 24.1941 60.9461 24.8239 58.8911 25.5938L53.3415 27.7032C50.7305 28.733 47.514 29.4228 45.588 29.4228C43.6422 29.4228 40.4355 28.733 37.8146 27.7032L32.265 25.5938C30.2298 24.8239 27.2813 24.1941 25.5936 24.1941C23.618 24.1941 20.8382 24.8539 17.8202 25.9937L13.3726 27.7032C10.8013 28.703 7.54505 29.4228 5.56944 29.4228C4.94399 29.4228 4.63624 29.3928 3.8718 29.2829C3.28607 28.543 3.07759 28.1731 2.64077 27.3633L2.45214 26.9934C3.95123 27.2733 4.79508 27.3933 5.62901 27.3933C7.59469 27.3933 10.4241 26.7335 13.3825 25.5638L17.8301 23.8542C20.1929 22.9444 23.6974 22.2046 25.6035 22.2046C27.5196 22.2046 31.0141 22.9444 33.3571 23.8542L37.8146 25.5638C40.7731 26.7335 43.5925 27.3933 45.5681 27.3933C47.5636 27.3933 50.3831 26.7335 53.3415 25.5638L57.7891 23.8542C60.1221 22.9444 63.6266 22.2046 65.5327 22.2046C67.4488 22.2046 70.9632 22.9444 73.3061 23.8542L77.7637 25.5638C80.7221 26.7335 83.5416 27.3933 85.5172 27.3933C86.371 27.4133 87.2049 27.2833 88.7239 26.9934ZM81.6355 32.682C80.9604 33.3919 80.7817 33.5618 80.0073 34.1617L76.4532 32.912L72.3431 31.5323C69.2358 30.4526 67.1311 29.9927 65.3243 29.9927C63.6961 29.9927 60.7277 30.6125 58.7422 31.3723L53.272 33.5118C50.7107 34.5116 47.5239 35.1914 45.5781 35.2214C43.6322 35.2214 40.4454 34.5116 37.8841 33.5118L32.3941 31.3723C30.4284 30.6025 27.46 29.9927 25.812 29.9927C24.0151 29.9927 21.9204 30.4426 18.7931 31.5323L14.7029 32.912L11.1587 34.1617C10.3943 33.5618 10.2255 33.3919 9.53059 32.682L15.9042 30.4026C18.7137 29.4028 19.905 29.0329 21.424 28.633C23.0223 28.2331 24.6604 27.9732 25.8219 27.9732C27.6884 27.9732 31.2226 28.743 33.506 29.6228L37.894 31.3624C40.8723 32.5321 43.5826 33.1619 45.588 33.1619C47.5835 33.1619 50.3136 32.5121 53.282 31.3624L57.6799 29.6228C59.9335 28.733 63.4777 27.9732 65.3342 27.9732C66.4957 27.9732 68.1239 28.2331 69.752 28.633C71.3007 29.0329 72.4027 29.3728 75.2718 30.4026L81.6355 32.682ZM74.5868 36.0012L72.3829 37.3409L71.8765 37.1709C69.3152 36.2612 67.0914 35.7713 65.3938 35.7713C63.6564 35.7713 61.5914 36.2012 58.8018 37.1709L57.7097 37.5708L56.5879 38.0007L55.4958 38.4306L54.3939 38.8605L53.3018 39.2904L52.1998 39.6603C49.8867 40.4901 47.2956 41 45.6277 41C43.662 41 41.2297 40.4601 37.9337 39.2904L36.8318 38.8605L35.7298 38.4306L34.6179 38.0007L33.4961 37.5708L32.404 37.1709L31.302 36.801C29.4753 36.1712 27.2416 35.7713 25.8319 35.7713C24.1342 35.7713 21.9104 36.2512 19.3292 37.1709L18.8428 37.3409L16.6289 36.0012C17.1849 35.7713 17.3536 35.7213 18.1181 35.4314L19.22 35.0614C21.4141 34.2916 24.174 33.7518 25.812 33.7518C27.7579 33.7518 30.2993 34.3216 33.4961 35.4314L34.6179 35.8613L35.7199 36.2911L36.8218 36.721L37.9238 37.1509L39.0258 37.5308C41.3886 38.3806 43.9201 38.9305 45.6079 38.9305C47.5835 38.9305 49.976 38.3906 53.3217 37.1509L54.4137 36.721L55.5157 36.2911L56.6077 35.8613C56.7964 35.7813 57.1637 35.6313 57.7296 35.4314L58.8216 35.0614C61.0256 34.2916 63.7755 33.7518 65.4136 33.7518C67.3594 33.7518 69.9208 34.3216 73.1076 35.4314L74.2294 35.8613L74.5868 36.0012ZM12.8762 8.95782V14.0366C11.7445 14.4965 10.6028 14.7564 9.50081 14.7564C6.59199 14.7564 4.56674 12.437 4.56674 9.17776C4.56674 5.66862 7.00896 3.19922 10.4837 3.19922C12.4493 3.19922 14.3753 3.76908 16.7083 5.00878V1.6296C13.7201 0.379908 12.2508 0.00999779 10.027 0.00999779C3.91151 0.00999779 0 3.55913 0 9.12777C0 14.4165 3.80231 17.9256 9.49088 17.9256C12.0224 17.9256 15.0405 17.0958 17.2444 15.7762V8.94782H12.8762M19.7263 0.0299934V17.9456H24.2534V3.40917H26.1992C28.7605 3.40917 29.9122 4.23897 29.9122 6.11851C29.9122 8.03804 28.6216 9.14777 26.368 9.14777L25.3851 9.10778H24.8788L31.1829 17.9356H36.9807L31.2028 10.7374C33.367 9.71763 34.4988 7.95806 34.4988 5.62863C34.4988 1.81956 32.126 0 27.1423 0L19.7263 0.0299934ZM59.1492 0.0299934V17.9456H63.2891V10.2775H70.6058V17.9456H74.7457V0.0299934H70.6058V6.63838H63.2891V0.00999779M78.8656 0.0299934V17.9456H92V14.4365H83.4125V10.1575H89.7266V6.78834H83.4125V3.50914H90.9973V0.00999779M41.3787 8.98781C41.3787 5.55864 43.6025 3.14923 46.819 3.14923C50.0257 3.14923 52.2594 5.55864 52.2594 8.98781C52.2594 12.417 50.0257 14.8164 46.819 14.8164C43.6124 14.8164 41.3787 12.417 41.3787 8.98781ZM36.9807 8.98781C36.9807 14.1565 41.1404 17.9556 46.8389 17.9556C52.5275 17.9556 56.6971 14.1765 56.6971 8.98781C56.6772 3.81907 52.5275 0.0199956 46.8389 0.0199956C41.1305 0.0299931 36.9807 3.80907 36.9807 8.98781Z" fill="white"/>
</svg>
